<mxfile host="app.diagrams.net" modified="2022-10-13T14:39:51.086Z" agent="5.0 (Windows NT 10.0; Win64; x64) AppleWebKit/537.36 (KHTML, like Gecko) Chrome/106.0.0.0 Safari/537.36" etag="3rnjueJCgsIzc5eQgqq4" version="20.3.5" type="github">
  <diagram id="xuckC1ayMCSQMCM4Re3-" name="Page-1">
    <mxGraphModel dx="2062" dy="1154" grid="1" gridSize="10" guides="1" tooltips="1" connect="1" arrows="1" fold="1" page="1" pageScale="1" pageWidth="2339" pageHeight="3300" math="0" shadow="0">
      <root>
        <mxCell id="0" />
        <mxCell id="1" parent="0" />
        <mxCell id="dWekUvnl17aSecGQ4jB8-1" value="START&lt;br&gt;" style="ellipse;whiteSpace=wrap;html=1;" vertex="1" parent="1">
          <mxGeometry x="180" width="120" height="80" as="geometry" />
        </mxCell>
        <mxCell id="dWekUvnl17aSecGQ4jB8-2" value="" style="rounded=0;whiteSpace=wrap;html=1;" vertex="1" parent="1">
          <mxGeometry x="180" y="120" width="120" height="60" as="geometry" />
        </mxCell>
        <mxCell id="dWekUvnl17aSecGQ4jB8-3" value="" style="rounded=0;whiteSpace=wrap;html=1;" vertex="1" parent="1">
          <mxGeometry x="1430" y="560" width="120" height="60" as="geometry" />
        </mxCell>
        <mxCell id="dWekUvnl17aSecGQ4jB8-4" value="" style="rounded=0;whiteSpace=wrap;html=1;" vertex="1" parent="1">
          <mxGeometry x="1170" y="700" width="120" height="60" as="geometry" />
        </mxCell>
        <mxCell id="dWekUvnl17aSecGQ4jB8-5" value="" style="rounded=0;whiteSpace=wrap;html=1;" vertex="1" parent="1">
          <mxGeometry x="1140" y="720" width="120" height="60" as="geometry" />
        </mxCell>
        <mxCell id="dWekUvnl17aSecGQ4jB8-6" value="" style="rounded=0;whiteSpace=wrap;html=1;" vertex="1" parent="1">
          <mxGeometry x="1050" y="810" width="120" height="60" as="geometry" />
        </mxCell>
        <mxCell id="dWekUvnl17aSecGQ4jB8-7" value="" style="rounded=0;whiteSpace=wrap;html=1;" vertex="1" parent="1">
          <mxGeometry x="910" y="680" width="120" height="60" as="geometry" />
        </mxCell>
        <mxCell id="dWekUvnl17aSecGQ4jB8-8" value="" style="rounded=0;whiteSpace=wrap;html=1;" vertex="1" parent="1">
          <mxGeometry x="940" y="380" width="120" height="60" as="geometry" />
        </mxCell>
      </root>
    </mxGraphModel>
  </diagram>
</mxfile>
